<?xml version="1.0" standalone="no"?><svg xmlns="http://www.w3.org/2000/svg" viewBox="0 0 1440 320"><path fill="#cdcdcd" fill-opacity="1" d="M0,96L30,80C60,64,120,32,180,53.3C240,75,300,149,360,192C420,235,480,245,540,250.7C600,256,660,256,720,266.7C780,277,840,299,900,277.3C960,256,1020,192,1080,144C1140,96,1200,64,1260,58.7C1320,53,1380,75,1410,85.3L1440,96L1440,0L1410,0C1380,0,1320,0,1260,0C1200,0,1140,0,1080,0C1020,0,960,0,900,0C840,0,780,0,720,0C660,0,600,0,540,0C480,0,420,0,360,0C300,0,240,0,180,0C120,0,60,0,30,0L0,0Z"></path></svg>