<?xml version="1.0" standalone="no"?><svg xmlns="http://www.w3.org/2000/svg" viewBox="0 0 1440 320"><path fill="#cdcdcd" fill-opacity="0.5" d="M0,192L26.7,176C53.3,160,107,128,160,128C213.3,128,267,160,320,181.3C373.3,203,427,213,480,229.3C533.3,245,587,267,640,272C693.3,277,747,267,800,224C853.3,181,907,107,960,96C1013.3,85,1067,139,1120,181.3C1173.3,224,1227,256,1280,256C1333.3,256,1387,224,1413,208L1440,192L1440,0L1413.3,0C1386.7,0,1333,0,1280,0C1226.7,0,1173,0,1120,0C1066.7,0,1013,0,960,0C906.7,0,853,0,800,0C746.7,0,693,0,640,0C586.7,0,533,0,480,0C426.7,0,373,0,320,0C266.7,0,213,0,160,0C106.7,0,53,0,27,0L0,0Z"></path></svg>